M48
;DRILL file {KiCad 4.0.6+dfsg1-1} date Fri Nov 17 11:15:13 2017
;FORMAT={-:-/ absolute / metric / decimal}
FMAT,2
METRIC,TZ
T1C0.800
T2C0.800
T3C1.501
T4C3.251
%
G90
G05
M71
T1
X5.08Y40.767
X5.08Y38.227
X9.398Y40.64
X9.853Y15.753
X12.192Y36.322
X14.732Y36.322
X19.558Y40.64
X22.606Y40.64
X22.606Y38.1
X22.606Y35.56
X22.606Y33.02
X22.606Y30.48
X22.606Y27.94
X22.606Y25.4
X22.606Y22.86
X22.606Y20.32
X22.606Y17.78
X22.606Y15.24
X22.606Y12.7
X22.606Y10.16
X22.606Y7.62
X22.606Y5.08
X37.846Y40.64
X37.846Y38.1
X37.846Y35.56
X37.846Y33.02
X37.846Y30.48
X37.846Y27.94
X37.846Y25.4
X37.846Y22.86
X37.846Y20.32
X37.846Y17.78
X37.846Y15.24
X37.846Y12.7
X37.846Y10.16
X37.846Y7.62
X37.846Y5.08
T2
X8.072Y22.855
X8.072Y20.825
X8.072Y18.796
X8.072Y16.767
X9.853Y21.841
X9.853Y19.812
X9.853Y17.783
T3
X8.961Y27.424
X8.961Y11.184
T4
X5.532Y25.644
X5.532Y12.964
T0
M30
