G04 #@! TF.FileFunction,Copper,L2,Bot,Signal*
%FSLAX46Y46*%
G04 Gerber Fmt 4.6, Leading zero omitted, Abs format (unit mm)*
G04 Created by KiCad (PCBNEW 4.0.6+dfsg1-1) date Sun Nov 19 12:37:41 2017*
%MOMM*%
%LPD*%
G01*
G04 APERTURE LIST*
%ADD10C,0.100000*%
%ADD11C,1.800000*%
%ADD12C,2.499360*%
%ADD13O,1.600000X1.600000*%
%ADD14C,1.000000*%
%ADD15C,0.554000*%
G04 APERTURE END LIST*
D10*
D11*
X34287460Y25201880D03*
X36316920Y25201880D03*
X35303460Y23421340D03*
X33274000Y23421340D03*
X32258000Y25201880D03*
X31244540Y23421340D03*
X30228540Y25201880D03*
X29215080Y23421340D03*
D12*
X24645620Y24312880D03*
X40886380Y24312880D03*
D11*
X49276000Y8001000D03*
X49276000Y10541000D03*
X56896000Y8001000D03*
X56896000Y10541000D03*
X41656000Y10541000D03*
X41656000Y8001000D03*
X34036000Y8001000D03*
X34036000Y10541000D03*
X26416000Y10541000D03*
X26416000Y8001000D03*
X18796000Y8001000D03*
X18796000Y10541000D03*
X11176000Y10541000D03*
X11176000Y8001000D03*
X3556000Y8001000D03*
X3556000Y10541000D03*
X56896000Y24511000D03*
D13*
X56896000Y14351000D03*
D11*
X49276000Y24511000D03*
D13*
X49276000Y14351000D03*
D11*
X50546000Y4191000D03*
D13*
X40386000Y4191000D03*
D11*
X42926000Y14351000D03*
D13*
X32766000Y14351000D03*
D11*
X35306000Y4191000D03*
D13*
X25146000Y4191000D03*
D11*
X27686000Y14351000D03*
X17526000Y14351000D03*
X20066000Y4191000D03*
D13*
X9906000Y4191000D03*
D11*
X12446000Y14351000D03*
D13*
X2286000Y14351000D03*
D14*
X35303460Y23421340D02*
X35303460Y21084540D01*
X39116000Y17272000D02*
X51435000Y17272000D01*
X35303460Y21084540D02*
X39116000Y17272000D01*
X35303460Y23421340D02*
X35303460Y23243540D01*
X49276000Y24511000D02*
X49276000Y19431000D01*
X49911000Y18796000D02*
X51435000Y17272000D01*
X49276000Y19431000D02*
X49911000Y18796000D01*
X53086000Y8001000D02*
X56896000Y8001000D01*
X51435000Y17272000D02*
X53086000Y15621000D01*
X53086000Y15621000D02*
X53086000Y8001000D01*
X56896000Y14351000D02*
X56896000Y10541000D01*
X34287460Y25201880D02*
X34287460Y27937460D01*
X57531000Y4191000D02*
X50546000Y4191000D01*
X60706000Y7366000D02*
X57531000Y4191000D01*
X60706000Y27051000D02*
X60706000Y7366000D01*
X56896000Y30861000D02*
X60706000Y27051000D01*
X37211000Y30861000D02*
X56896000Y30861000D01*
X34287460Y27937460D02*
X37211000Y30861000D01*
X49276000Y8001000D02*
X49276000Y5461000D01*
X49276000Y5461000D02*
X50546000Y4191000D01*
X49276000Y14351000D02*
X49276000Y10541000D01*
X33274000Y23421340D02*
X33274000Y20828000D01*
X39751000Y14351000D02*
X42926000Y14351000D01*
X33274000Y20828000D02*
X39751000Y14351000D01*
X42926000Y14351000D02*
X42926000Y11811000D01*
X42926000Y11811000D02*
X41656000Y10541000D01*
X41656000Y8001000D02*
X41656000Y5461000D01*
X41656000Y5461000D02*
X40386000Y4191000D01*
X32258000Y25201880D02*
X32258000Y29083000D01*
X37846000Y1651000D02*
X35306000Y4191000D01*
X57531000Y1651000D02*
X37846000Y1651000D01*
X62611000Y6731000D02*
X57531000Y1651000D01*
X62611000Y28321000D02*
X62611000Y6731000D01*
X58166000Y32766000D02*
X62611000Y28321000D01*
X35941000Y32766000D02*
X58166000Y32766000D01*
X32258000Y29083000D02*
X35941000Y32766000D01*
X34036000Y8001000D02*
X34036000Y5461000D01*
X34036000Y5461000D02*
X35306000Y4191000D01*
X32766000Y14351000D02*
X32766000Y11811000D01*
X32766000Y11811000D02*
X34036000Y10541000D01*
X31244540Y23421340D02*
X31244540Y17909540D01*
X31244540Y17909540D02*
X27686000Y14351000D01*
X27686000Y14351000D02*
X27686000Y11811000D01*
X27686000Y11811000D02*
X26416000Y10541000D01*
X26416000Y8001000D02*
X26416000Y5461000D01*
X26416000Y5461000D02*
X25146000Y4191000D01*
X30228540Y25201880D02*
X30228540Y28953460D01*
X7366000Y13081000D02*
X7366000Y2286000D01*
X12446000Y18161000D02*
X7366000Y13081000D01*
X25146000Y30861000D02*
X12446000Y18161000D01*
X28321000Y30861000D02*
X25146000Y30861000D01*
X30228540Y28953460D02*
X28321000Y30861000D01*
X7366000Y2286000D02*
X7366000Y2921000D01*
X7366000Y2921000D02*
X7366000Y2286000D01*
X20066000Y4191000D02*
X18161000Y2286000D01*
X3556000Y6096000D02*
X3556000Y8001000D01*
X7366000Y2286000D02*
X7366000Y2286000D01*
X7366000Y2286000D02*
X6096000Y3556000D01*
X6096000Y3556000D02*
X5143500Y4508500D01*
X5143500Y4508500D02*
X3556000Y6096000D01*
X18161000Y2286000D02*
X7366000Y2286000D01*
X18796000Y8001000D02*
X18796000Y5461000D01*
X18796000Y5461000D02*
X20066000Y4191000D01*
X17526000Y14351000D02*
X17526000Y11811000D01*
X17526000Y11811000D02*
X18796000Y10541000D01*
X29215080Y23421340D02*
X29215080Y22230080D01*
X16891000Y18796000D02*
X12446000Y14351000D01*
X25781000Y18796000D02*
X16891000Y18796000D01*
X29215080Y22230080D02*
X25781000Y18796000D01*
X11176000Y10541000D02*
X11176000Y13081000D01*
X11176000Y13081000D02*
X12446000Y14351000D01*
X11176000Y8001000D02*
X11176000Y5461000D01*
X11176000Y5461000D02*
X9906000Y4191000D01*
X3556000Y10541000D02*
X3556000Y13081000D01*
X3556000Y13081000D02*
X2286000Y14351000D01*
X36316920Y25201880D02*
X36774120Y25201880D01*
X36774120Y25201880D02*
X37592000Y24384000D01*
X54483000Y26924000D02*
X56896000Y24511000D01*
X47244000Y26924000D02*
X54483000Y26924000D01*
X46228000Y25908000D02*
X47244000Y26924000D01*
X46228000Y21336000D02*
X46228000Y25908000D01*
X44196000Y19304000D02*
X46228000Y21336000D01*
X39624000Y19304000D02*
X44196000Y19304000D01*
X37592000Y21336000D02*
X39624000Y19304000D01*
X37592000Y24384000D02*
X37592000Y21336000D01*
X36316920Y25201880D02*
X36520120Y25201880D01*
X36316920Y25201880D02*
X36316920Y24770080D01*
D15*
G36*
X64239000Y150000D02*
X150000Y150000D01*
X150000Y14351000D01*
X576146Y14351000D01*
X703800Y13709240D01*
X1067328Y13165182D01*
X1611386Y12801654D01*
X1956652Y12732976D01*
X2179000Y12510628D01*
X2179000Y11677268D01*
X2050412Y11548904D01*
X1779310Y10896018D01*
X1778693Y10189084D01*
X2048655Y9535726D01*
X2312943Y9270976D01*
X2050412Y9008904D01*
X1779310Y8356018D01*
X1778693Y7649084D01*
X2048655Y6995726D01*
X2179000Y6865153D01*
X2179000Y6096000D01*
X2283818Y5569045D01*
X2582314Y5122314D01*
X6392314Y1312314D01*
X6839045Y1013818D01*
X7366000Y909000D01*
X18161000Y909000D01*
X18687955Y1013818D01*
X19134686Y1312314D01*
X20236224Y2413852D01*
X20417916Y2413693D01*
X21071274Y2683655D01*
X21571588Y3183096D01*
X21842690Y3835982D01*
X21843307Y4542916D01*
X21573345Y5196274D01*
X21073904Y5696588D01*
X20421018Y5967690D01*
X20236521Y5967851D01*
X20173000Y6031372D01*
X20173000Y6864732D01*
X20301588Y6993096D01*
X20572690Y7645982D01*
X20573307Y8352916D01*
X20303345Y9006274D01*
X20039057Y9271024D01*
X20301588Y9533096D01*
X20572690Y10185982D01*
X20573307Y10892916D01*
X20303345Y11546274D01*
X19803904Y12046588D01*
X19151018Y12317690D01*
X18966521Y12317851D01*
X18903000Y12381372D01*
X18903000Y13214732D01*
X19031588Y13343096D01*
X19302690Y13995982D01*
X19303307Y14702916D01*
X19033345Y15356274D01*
X18533904Y15856588D01*
X17881018Y16127690D01*
X17174084Y16128307D01*
X16520726Y15858345D01*
X16020412Y15358904D01*
X15749310Y14706018D01*
X15748693Y13999084D01*
X16018655Y13345726D01*
X16149000Y13215153D01*
X16149000Y11811000D01*
X16253818Y11284045D01*
X16552314Y10837314D01*
X17018852Y10370776D01*
X17018693Y10189084D01*
X17288655Y9535726D01*
X17552943Y9270976D01*
X17290412Y9008904D01*
X17019310Y8356018D01*
X17018693Y7649084D01*
X17288655Y6995726D01*
X17419000Y6865153D01*
X17419000Y5461000D01*
X17523818Y4934045D01*
X17822314Y4487314D01*
X18118628Y4191000D01*
X17590628Y3663000D01*
X11510828Y3663000D01*
X11556878Y3894506D01*
X12149686Y4487314D01*
X12448182Y4934045D01*
X12553000Y5461000D01*
X12553000Y6864732D01*
X12681588Y6993096D01*
X12952690Y7645982D01*
X12953307Y8352916D01*
X12683345Y9006274D01*
X12419057Y9271024D01*
X12681588Y9533096D01*
X12952690Y10185982D01*
X12953307Y10892916D01*
X12683345Y11546274D01*
X12553000Y11676847D01*
X12553000Y12510628D01*
X12616224Y12573852D01*
X12797916Y12573693D01*
X13451274Y12843655D01*
X13951588Y13343096D01*
X14222690Y13995982D01*
X14222851Y14180479D01*
X17461372Y17419000D01*
X25781000Y17419000D01*
X26307955Y17523818D01*
X26754686Y17822314D01*
X29867540Y20935168D01*
X29867540Y18479912D01*
X27515776Y16128148D01*
X27334084Y16128307D01*
X26680726Y15858345D01*
X26180412Y15358904D01*
X25909310Y14706018D01*
X25908693Y13999084D01*
X26178655Y13345726D01*
X26309000Y13215153D01*
X26309000Y12381372D01*
X26245776Y12318148D01*
X26064084Y12318307D01*
X25410726Y12048345D01*
X24910412Y11548904D01*
X24639310Y10896018D01*
X24638693Y10189084D01*
X24908655Y9535726D01*
X25172943Y9270976D01*
X24910412Y9008904D01*
X24639310Y8356018D01*
X24638693Y7649084D01*
X24908655Y6995726D01*
X25039000Y6865153D01*
X25039000Y6031372D01*
X24816652Y5809024D01*
X24471386Y5740346D01*
X23927328Y5376818D01*
X23563800Y4832760D01*
X23436146Y4191000D01*
X23563800Y3549240D01*
X23927328Y3005182D01*
X24471386Y2641654D01*
X25113146Y2514000D01*
X25178854Y2514000D01*
X25820614Y2641654D01*
X26364672Y3005182D01*
X26728200Y3549240D01*
X26796878Y3894506D01*
X27389686Y4487314D01*
X27688182Y4934045D01*
X27793000Y5461000D01*
X27793000Y6864732D01*
X27921588Y6993096D01*
X28192690Y7645982D01*
X28193307Y8352916D01*
X27923345Y9006274D01*
X27659057Y9271024D01*
X27921588Y9533096D01*
X28192690Y10185982D01*
X28192851Y10370479D01*
X28659686Y10837314D01*
X28958182Y11284045D01*
X29063000Y11811000D01*
X29063000Y13214732D01*
X29191588Y13343096D01*
X29462690Y13995982D01*
X29462851Y14180479D01*
X32218226Y16935854D01*
X32516722Y17382585D01*
X32621540Y17909540D01*
X32621540Y19533088D01*
X38777314Y13377314D01*
X39224045Y13078818D01*
X39751000Y12974000D01*
X41549000Y12974000D01*
X41549000Y12381372D01*
X41485776Y12318148D01*
X41304084Y12318307D01*
X40650726Y12048345D01*
X40150412Y11548904D01*
X39879310Y10896018D01*
X39878693Y10189084D01*
X40148655Y9535726D01*
X40412943Y9270976D01*
X40150412Y9008904D01*
X39879310Y8356018D01*
X39878693Y7649084D01*
X40148655Y6995726D01*
X40279000Y6865153D01*
X40279000Y6031372D01*
X40056652Y5809024D01*
X39711386Y5740346D01*
X39167328Y5376818D01*
X38803800Y4832760D01*
X38676146Y4191000D01*
X38803800Y3549240D01*
X39152081Y3028000D01*
X38416372Y3028000D01*
X37083148Y4361224D01*
X37083307Y4542916D01*
X36813345Y5196274D01*
X36313904Y5696588D01*
X35661018Y5967690D01*
X35476521Y5967851D01*
X35413000Y6031372D01*
X35413000Y6864732D01*
X35541588Y6993096D01*
X35812690Y7645982D01*
X35813307Y8352916D01*
X35543345Y9006274D01*
X35279057Y9271024D01*
X35541588Y9533096D01*
X35812690Y10185982D01*
X35813307Y10892916D01*
X35543345Y11546274D01*
X35043904Y12046588D01*
X34391018Y12317690D01*
X34206521Y12317851D01*
X34143000Y12381372D01*
X34143000Y13402137D01*
X34348200Y13709240D01*
X34475854Y14351000D01*
X34348200Y14992760D01*
X33984672Y15536818D01*
X33440614Y15900346D01*
X32798854Y16028000D01*
X32733146Y16028000D01*
X32091386Y15900346D01*
X31547328Y15536818D01*
X31183800Y14992760D01*
X31056146Y14351000D01*
X31183800Y13709240D01*
X31389000Y13402137D01*
X31389000Y11811000D01*
X31493818Y11284045D01*
X31792314Y10837314D01*
X32258852Y10370776D01*
X32258693Y10189084D01*
X32528655Y9535726D01*
X32792943Y9270976D01*
X32530412Y9008904D01*
X32259310Y8356018D01*
X32258693Y7649084D01*
X32528655Y6995726D01*
X32659000Y6865153D01*
X32659000Y5461000D01*
X32763818Y4934045D01*
X33062314Y4487314D01*
X33528852Y4020776D01*
X33528693Y3839084D01*
X33798655Y3185726D01*
X34298096Y2685412D01*
X34950982Y2414310D01*
X35135479Y2414149D01*
X36872314Y677314D01*
X37319045Y378818D01*
X37846000Y274000D01*
X57531000Y274000D01*
X58057955Y378818D01*
X58504686Y677314D01*
X63584686Y5757314D01*
X63883182Y6204045D01*
X63988000Y6731000D01*
X63988000Y28321000D01*
X63883182Y28847955D01*
X63584686Y29294686D01*
X59139686Y33739686D01*
X58692955Y34038182D01*
X58166000Y34143000D01*
X35941000Y34143000D01*
X35414045Y34038182D01*
X34967314Y33739686D01*
X31284314Y30056686D01*
X31199548Y29929824D01*
X29294686Y31834686D01*
X28847955Y32133182D01*
X28321000Y32238000D01*
X25146000Y32238000D01*
X24619045Y32133182D01*
X24172314Y31834686D01*
X6392314Y14054686D01*
X6093818Y13607955D01*
X5989000Y13081000D01*
X5989000Y5610372D01*
X4933000Y6666372D01*
X4933000Y6864732D01*
X5061588Y6993096D01*
X5332690Y7645982D01*
X5333307Y8352916D01*
X5063345Y9006274D01*
X4799057Y9271024D01*
X5061588Y9533096D01*
X5332690Y10185982D01*
X5333307Y10892916D01*
X5063345Y11546274D01*
X4933000Y11676847D01*
X4933000Y13081000D01*
X4828182Y13607955D01*
X4529686Y14054686D01*
X3936878Y14647494D01*
X3868200Y14992760D01*
X3504672Y15536818D01*
X2960614Y15900346D01*
X2318854Y16028000D01*
X2253146Y16028000D01*
X1611386Y15900346D01*
X1067328Y15536818D01*
X703800Y14992760D01*
X576146Y14351000D01*
X150000Y14351000D01*
X150000Y34267000D01*
X64239000Y34267000D01*
X64239000Y150000D01*
X64239000Y150000D01*
G37*
X64239000Y150000D02*
X150000Y150000D01*
X150000Y14351000D01*
X576146Y14351000D01*
X703800Y13709240D01*
X1067328Y13165182D01*
X1611386Y12801654D01*
X1956652Y12732976D01*
X2179000Y12510628D01*
X2179000Y11677268D01*
X2050412Y11548904D01*
X1779310Y10896018D01*
X1778693Y10189084D01*
X2048655Y9535726D01*
X2312943Y9270976D01*
X2050412Y9008904D01*
X1779310Y8356018D01*
X1778693Y7649084D01*
X2048655Y6995726D01*
X2179000Y6865153D01*
X2179000Y6096000D01*
X2283818Y5569045D01*
X2582314Y5122314D01*
X6392314Y1312314D01*
X6839045Y1013818D01*
X7366000Y909000D01*
X18161000Y909000D01*
X18687955Y1013818D01*
X19134686Y1312314D01*
X20236224Y2413852D01*
X20417916Y2413693D01*
X21071274Y2683655D01*
X21571588Y3183096D01*
X21842690Y3835982D01*
X21843307Y4542916D01*
X21573345Y5196274D01*
X21073904Y5696588D01*
X20421018Y5967690D01*
X20236521Y5967851D01*
X20173000Y6031372D01*
X20173000Y6864732D01*
X20301588Y6993096D01*
X20572690Y7645982D01*
X20573307Y8352916D01*
X20303345Y9006274D01*
X20039057Y9271024D01*
X20301588Y9533096D01*
X20572690Y10185982D01*
X20573307Y10892916D01*
X20303345Y11546274D01*
X19803904Y12046588D01*
X19151018Y12317690D01*
X18966521Y12317851D01*
X18903000Y12381372D01*
X18903000Y13214732D01*
X19031588Y13343096D01*
X19302690Y13995982D01*
X19303307Y14702916D01*
X19033345Y15356274D01*
X18533904Y15856588D01*
X17881018Y16127690D01*
X17174084Y16128307D01*
X16520726Y15858345D01*
X16020412Y15358904D01*
X15749310Y14706018D01*
X15748693Y13999084D01*
X16018655Y13345726D01*
X16149000Y13215153D01*
X16149000Y11811000D01*
X16253818Y11284045D01*
X16552314Y10837314D01*
X17018852Y10370776D01*
X17018693Y10189084D01*
X17288655Y9535726D01*
X17552943Y9270976D01*
X17290412Y9008904D01*
X17019310Y8356018D01*
X17018693Y7649084D01*
X17288655Y6995726D01*
X17419000Y6865153D01*
X17419000Y5461000D01*
X17523818Y4934045D01*
X17822314Y4487314D01*
X18118628Y4191000D01*
X17590628Y3663000D01*
X11510828Y3663000D01*
X11556878Y3894506D01*
X12149686Y4487314D01*
X12448182Y4934045D01*
X12553000Y5461000D01*
X12553000Y6864732D01*
X12681588Y6993096D01*
X12952690Y7645982D01*
X12953307Y8352916D01*
X12683345Y9006274D01*
X12419057Y9271024D01*
X12681588Y9533096D01*
X12952690Y10185982D01*
X12953307Y10892916D01*
X12683345Y11546274D01*
X12553000Y11676847D01*
X12553000Y12510628D01*
X12616224Y12573852D01*
X12797916Y12573693D01*
X13451274Y12843655D01*
X13951588Y13343096D01*
X14222690Y13995982D01*
X14222851Y14180479D01*
X17461372Y17419000D01*
X25781000Y17419000D01*
X26307955Y17523818D01*
X26754686Y17822314D01*
X29867540Y20935168D01*
X29867540Y18479912D01*
X27515776Y16128148D01*
X27334084Y16128307D01*
X26680726Y15858345D01*
X26180412Y15358904D01*
X25909310Y14706018D01*
X25908693Y13999084D01*
X26178655Y13345726D01*
X26309000Y13215153D01*
X26309000Y12381372D01*
X26245776Y12318148D01*
X26064084Y12318307D01*
X25410726Y12048345D01*
X24910412Y11548904D01*
X24639310Y10896018D01*
X24638693Y10189084D01*
X24908655Y9535726D01*
X25172943Y9270976D01*
X24910412Y9008904D01*
X24639310Y8356018D01*
X24638693Y7649084D01*
X24908655Y6995726D01*
X25039000Y6865153D01*
X25039000Y6031372D01*
X24816652Y5809024D01*
X24471386Y5740346D01*
X23927328Y5376818D01*
X23563800Y4832760D01*
X23436146Y4191000D01*
X23563800Y3549240D01*
X23927328Y3005182D01*
X24471386Y2641654D01*
X25113146Y2514000D01*
X25178854Y2514000D01*
X25820614Y2641654D01*
X26364672Y3005182D01*
X26728200Y3549240D01*
X26796878Y3894506D01*
X27389686Y4487314D01*
X27688182Y4934045D01*
X27793000Y5461000D01*
X27793000Y6864732D01*
X27921588Y6993096D01*
X28192690Y7645982D01*
X28193307Y8352916D01*
X27923345Y9006274D01*
X27659057Y9271024D01*
X27921588Y9533096D01*
X28192690Y10185982D01*
X28192851Y10370479D01*
X28659686Y10837314D01*
X28958182Y11284045D01*
X29063000Y11811000D01*
X29063000Y13214732D01*
X29191588Y13343096D01*
X29462690Y13995982D01*
X29462851Y14180479D01*
X32218226Y16935854D01*
X32516722Y17382585D01*
X32621540Y17909540D01*
X32621540Y19533088D01*
X38777314Y13377314D01*
X39224045Y13078818D01*
X39751000Y12974000D01*
X41549000Y12974000D01*
X41549000Y12381372D01*
X41485776Y12318148D01*
X41304084Y12318307D01*
X40650726Y12048345D01*
X40150412Y11548904D01*
X39879310Y10896018D01*
X39878693Y10189084D01*
X40148655Y9535726D01*
X40412943Y9270976D01*
X40150412Y9008904D01*
X39879310Y8356018D01*
X39878693Y7649084D01*
X40148655Y6995726D01*
X40279000Y6865153D01*
X40279000Y6031372D01*
X40056652Y5809024D01*
X39711386Y5740346D01*
X39167328Y5376818D01*
X38803800Y4832760D01*
X38676146Y4191000D01*
X38803800Y3549240D01*
X39152081Y3028000D01*
X38416372Y3028000D01*
X37083148Y4361224D01*
X37083307Y4542916D01*
X36813345Y5196274D01*
X36313904Y5696588D01*
X35661018Y5967690D01*
X35476521Y5967851D01*
X35413000Y6031372D01*
X35413000Y6864732D01*
X35541588Y6993096D01*
X35812690Y7645982D01*
X35813307Y8352916D01*
X35543345Y9006274D01*
X35279057Y9271024D01*
X35541588Y9533096D01*
X35812690Y10185982D01*
X35813307Y10892916D01*
X35543345Y11546274D01*
X35043904Y12046588D01*
X34391018Y12317690D01*
X34206521Y12317851D01*
X34143000Y12381372D01*
X34143000Y13402137D01*
X34348200Y13709240D01*
X34475854Y14351000D01*
X34348200Y14992760D01*
X33984672Y15536818D01*
X33440614Y15900346D01*
X32798854Y16028000D01*
X32733146Y16028000D01*
X32091386Y15900346D01*
X31547328Y15536818D01*
X31183800Y14992760D01*
X31056146Y14351000D01*
X31183800Y13709240D01*
X31389000Y13402137D01*
X31389000Y11811000D01*
X31493818Y11284045D01*
X31792314Y10837314D01*
X32258852Y10370776D01*
X32258693Y10189084D01*
X32528655Y9535726D01*
X32792943Y9270976D01*
X32530412Y9008904D01*
X32259310Y8356018D01*
X32258693Y7649084D01*
X32528655Y6995726D01*
X32659000Y6865153D01*
X32659000Y5461000D01*
X32763818Y4934045D01*
X33062314Y4487314D01*
X33528852Y4020776D01*
X33528693Y3839084D01*
X33798655Y3185726D01*
X34298096Y2685412D01*
X34950982Y2414310D01*
X35135479Y2414149D01*
X36872314Y677314D01*
X37319045Y378818D01*
X37846000Y274000D01*
X57531000Y274000D01*
X58057955Y378818D01*
X58504686Y677314D01*
X63584686Y5757314D01*
X63883182Y6204045D01*
X63988000Y6731000D01*
X63988000Y28321000D01*
X63883182Y28847955D01*
X63584686Y29294686D01*
X59139686Y33739686D01*
X58692955Y34038182D01*
X58166000Y34143000D01*
X35941000Y34143000D01*
X35414045Y34038182D01*
X34967314Y33739686D01*
X31284314Y30056686D01*
X31199548Y29929824D01*
X29294686Y31834686D01*
X28847955Y32133182D01*
X28321000Y32238000D01*
X25146000Y32238000D01*
X24619045Y32133182D01*
X24172314Y31834686D01*
X6392314Y14054686D01*
X6093818Y13607955D01*
X5989000Y13081000D01*
X5989000Y5610372D01*
X4933000Y6666372D01*
X4933000Y6864732D01*
X5061588Y6993096D01*
X5332690Y7645982D01*
X5333307Y8352916D01*
X5063345Y9006274D01*
X4799057Y9271024D01*
X5061588Y9533096D01*
X5332690Y10185982D01*
X5333307Y10892916D01*
X5063345Y11546274D01*
X4933000Y11676847D01*
X4933000Y13081000D01*
X4828182Y13607955D01*
X4529686Y14054686D01*
X3936878Y14647494D01*
X3868200Y14992760D01*
X3504672Y15536818D01*
X2960614Y15900346D01*
X2318854Y16028000D01*
X2253146Y16028000D01*
X1611386Y15900346D01*
X1067328Y15536818D01*
X703800Y14992760D01*
X576146Y14351000D01*
X150000Y14351000D01*
X150000Y34267000D01*
X64239000Y34267000D01*
X64239000Y150000D01*
G36*
X48090182Y15569672D02*
X47726654Y15025614D01*
X47599000Y14383854D01*
X47599000Y14318146D01*
X47726654Y13676386D01*
X47899000Y13418452D01*
X47899000Y11677268D01*
X47770412Y11548904D01*
X47499310Y10896018D01*
X47498693Y10189084D01*
X47768655Y9535726D01*
X48032943Y9270976D01*
X47770412Y9008904D01*
X47499310Y8356018D01*
X47498693Y7649084D01*
X47768655Y6995726D01*
X47899000Y6865153D01*
X47899000Y5461000D01*
X48003818Y4934045D01*
X48302314Y4487314D01*
X48768852Y4020776D01*
X48768693Y3839084D01*
X49038655Y3185726D01*
X49196106Y3028000D01*
X41619919Y3028000D01*
X41968200Y3549240D01*
X42036878Y3894506D01*
X42629686Y4487314D01*
X42928182Y4934045D01*
X43033000Y5461000D01*
X43033000Y6864732D01*
X43161588Y6993096D01*
X43432690Y7645982D01*
X43433307Y8352916D01*
X43163345Y9006274D01*
X42899057Y9271024D01*
X43161588Y9533096D01*
X43432690Y10185982D01*
X43432851Y10370479D01*
X43899686Y10837314D01*
X44198182Y11284045D01*
X44303000Y11811000D01*
X44303000Y13214732D01*
X44431588Y13343096D01*
X44702690Y13995982D01*
X44703307Y14702916D01*
X44433345Y15356274D01*
X43933904Y15856588D01*
X43841398Y15895000D01*
X48577070Y15895000D01*
X48090182Y15569672D01*
X48090182Y15569672D01*
G37*
X48090182Y15569672D02*
X47726654Y15025614D01*
X47599000Y14383854D01*
X47599000Y14318146D01*
X47726654Y13676386D01*
X47899000Y13418452D01*
X47899000Y11677268D01*
X47770412Y11548904D01*
X47499310Y10896018D01*
X47498693Y10189084D01*
X47768655Y9535726D01*
X48032943Y9270976D01*
X47770412Y9008904D01*
X47499310Y8356018D01*
X47498693Y7649084D01*
X47768655Y6995726D01*
X47899000Y6865153D01*
X47899000Y5461000D01*
X48003818Y4934045D01*
X48302314Y4487314D01*
X48768852Y4020776D01*
X48768693Y3839084D01*
X49038655Y3185726D01*
X49196106Y3028000D01*
X41619919Y3028000D01*
X41968200Y3549240D01*
X42036878Y3894506D01*
X42629686Y4487314D01*
X42928182Y4934045D01*
X43033000Y5461000D01*
X43033000Y6864732D01*
X43161588Y6993096D01*
X43432690Y7645982D01*
X43433307Y8352916D01*
X43163345Y9006274D01*
X42899057Y9271024D01*
X43161588Y9533096D01*
X43432690Y10185982D01*
X43432851Y10370479D01*
X43899686Y10837314D01*
X44198182Y11284045D01*
X44303000Y11811000D01*
X44303000Y13214732D01*
X44431588Y13343096D01*
X44702690Y13995982D01*
X44703307Y14702916D01*
X44433345Y15356274D01*
X43933904Y15856588D01*
X43841398Y15895000D01*
X48577070Y15895000D01*
X48090182Y15569672D01*
G36*
X9903818Y13607955D02*
X9799000Y13081000D01*
X9799000Y11677268D01*
X9670412Y11548904D01*
X9399310Y10896018D01*
X9398693Y10189084D01*
X9668655Y9535726D01*
X9932943Y9270976D01*
X9670412Y9008904D01*
X9399310Y8356018D01*
X9398693Y7649084D01*
X9668655Y6995726D01*
X9799000Y6865153D01*
X9799000Y6031372D01*
X9576652Y5809024D01*
X9231386Y5740346D01*
X8743000Y5414017D01*
X8743000Y12510628D01*
X10031668Y13799296D01*
X9903818Y13607955D01*
X9903818Y13607955D01*
G37*
X9903818Y13607955D02*
X9799000Y13081000D01*
X9799000Y11677268D01*
X9670412Y11548904D01*
X9399310Y10896018D01*
X9398693Y10189084D01*
X9668655Y9535726D01*
X9932943Y9270976D01*
X9670412Y9008904D01*
X9399310Y8356018D01*
X9398693Y7649084D01*
X9668655Y6995726D01*
X9799000Y6865153D01*
X9799000Y6031372D01*
X9576652Y5809024D01*
X9231386Y5740346D01*
X8743000Y5414017D01*
X8743000Y12510628D01*
X10031668Y13799296D01*
X9903818Y13607955D01*
G36*
X51709000Y15050628D02*
X51709000Y8001000D01*
X51813818Y7474045D01*
X52112314Y7027314D01*
X52559045Y6728818D01*
X53086000Y6624000D01*
X55759732Y6624000D01*
X55888096Y6495412D01*
X56540982Y6224310D01*
X57247916Y6223693D01*
X57875727Y6483099D01*
X56960628Y5568000D01*
X51682268Y5568000D01*
X51553904Y5696588D01*
X50901018Y5967690D01*
X50716521Y5967851D01*
X50653000Y6031372D01*
X50653000Y6864732D01*
X50781588Y6993096D01*
X51052690Y7645982D01*
X51053307Y8352916D01*
X50783345Y9006274D01*
X50519057Y9271024D01*
X50781588Y9533096D01*
X51052690Y10185982D01*
X51053307Y10892916D01*
X50783345Y11546274D01*
X50653000Y11676847D01*
X50653000Y13418452D01*
X50825346Y13676386D01*
X50953000Y14318146D01*
X50953000Y14383854D01*
X50825346Y15025614D01*
X50461818Y15569672D01*
X49974930Y15895000D01*
X50864628Y15895000D01*
X51709000Y15050628D01*
X51709000Y15050628D01*
G37*
X51709000Y15050628D02*
X51709000Y8001000D01*
X51813818Y7474045D01*
X52112314Y7027314D01*
X52559045Y6728818D01*
X53086000Y6624000D01*
X55759732Y6624000D01*
X55888096Y6495412D01*
X56540982Y6224310D01*
X57247916Y6223693D01*
X57875727Y6483099D01*
X56960628Y5568000D01*
X51682268Y5568000D01*
X51553904Y5696588D01*
X50901018Y5967690D01*
X50716521Y5967851D01*
X50653000Y6031372D01*
X50653000Y6864732D01*
X50781588Y6993096D01*
X51052690Y7645982D01*
X51053307Y8352916D01*
X50783345Y9006274D01*
X50519057Y9271024D01*
X50781588Y9533096D01*
X51052690Y10185982D01*
X51053307Y10892916D01*
X50783345Y11546274D01*
X50653000Y11676847D01*
X50653000Y13418452D01*
X50825346Y13676386D01*
X50953000Y14318146D01*
X50953000Y14383854D01*
X50825346Y15025614D01*
X50461818Y15569672D01*
X49974930Y15895000D01*
X50864628Y15895000D01*
X51709000Y15050628D01*
G36*
X59329000Y26480628D02*
X59329000Y7936372D01*
X58412853Y7020225D01*
X58672690Y7645982D01*
X58673307Y8352916D01*
X58403345Y9006274D01*
X58139057Y9271024D01*
X58401588Y9533096D01*
X58672690Y10185982D01*
X58673307Y10892916D01*
X58403345Y11546274D01*
X58273000Y11676847D01*
X58273000Y13418452D01*
X58445346Y13676386D01*
X58573000Y14318146D01*
X58573000Y14383854D01*
X58445346Y15025614D01*
X58081818Y15569672D01*
X57537760Y15933200D01*
X56896000Y16060854D01*
X56254240Y15933200D01*
X55710182Y15569672D01*
X55346654Y15025614D01*
X55219000Y14383854D01*
X55219000Y14318146D01*
X55346654Y13676386D01*
X55519000Y13418452D01*
X55519000Y11677268D01*
X55390412Y11548904D01*
X55119310Y10896018D01*
X55118693Y10189084D01*
X55388655Y9535726D01*
X55546106Y9378000D01*
X54463000Y9378000D01*
X54463000Y15621000D01*
X54358182Y16147955D01*
X54059686Y16594686D01*
X50653000Y20001372D01*
X50653000Y23374732D01*
X50781588Y23503096D01*
X51052690Y24155982D01*
X51053307Y24862916D01*
X50783345Y25516274D01*
X50752673Y25547000D01*
X53912628Y25547000D01*
X55118852Y24340776D01*
X55118693Y24159084D01*
X55388655Y23505726D01*
X55888096Y23005412D01*
X56540982Y22734310D01*
X57247916Y22733693D01*
X57901274Y23003655D01*
X58401588Y23503096D01*
X58672690Y24155982D01*
X58673307Y24862916D01*
X58403345Y25516274D01*
X57903904Y26016588D01*
X57251018Y26287690D01*
X57066521Y26287851D01*
X55456686Y27897686D01*
X55009955Y28196182D01*
X54483000Y28301000D01*
X47244000Y28301000D01*
X46717045Y28196182D01*
X46270314Y27897686D01*
X45254314Y26881686D01*
X44955818Y26434955D01*
X44851000Y25908000D01*
X44851000Y21906372D01*
X43625628Y20681000D01*
X40194372Y20681000D01*
X38969000Y21906372D01*
X38969000Y23384277D01*
X39082417Y23109786D01*
X39680140Y22511020D01*
X40461501Y22186570D01*
X41307547Y22185832D01*
X42089474Y22508917D01*
X42688240Y23106640D01*
X43012690Y23888001D01*
X43013428Y24734047D01*
X42690343Y25515974D01*
X42092620Y26114740D01*
X41311259Y26439190D01*
X41274704Y26439222D01*
X41608005Y27241898D01*
X41608874Y28237494D01*
X41228678Y29157637D01*
X40902884Y29484000D01*
X56325628Y29484000D01*
X59329000Y26480628D01*
X59329000Y26480628D01*
G37*
X59329000Y26480628D02*
X59329000Y7936372D01*
X58412853Y7020225D01*
X58672690Y7645982D01*
X58673307Y8352916D01*
X58403345Y9006274D01*
X58139057Y9271024D01*
X58401588Y9533096D01*
X58672690Y10185982D01*
X58673307Y10892916D01*
X58403345Y11546274D01*
X58273000Y11676847D01*
X58273000Y13418452D01*
X58445346Y13676386D01*
X58573000Y14318146D01*
X58573000Y14383854D01*
X58445346Y15025614D01*
X58081818Y15569672D01*
X57537760Y15933200D01*
X56896000Y16060854D01*
X56254240Y15933200D01*
X55710182Y15569672D01*
X55346654Y15025614D01*
X55219000Y14383854D01*
X55219000Y14318146D01*
X55346654Y13676386D01*
X55519000Y13418452D01*
X55519000Y11677268D01*
X55390412Y11548904D01*
X55119310Y10896018D01*
X55118693Y10189084D01*
X55388655Y9535726D01*
X55546106Y9378000D01*
X54463000Y9378000D01*
X54463000Y15621000D01*
X54358182Y16147955D01*
X54059686Y16594686D01*
X50653000Y20001372D01*
X50653000Y23374732D01*
X50781588Y23503096D01*
X51052690Y24155982D01*
X51053307Y24862916D01*
X50783345Y25516274D01*
X50752673Y25547000D01*
X53912628Y25547000D01*
X55118852Y24340776D01*
X55118693Y24159084D01*
X55388655Y23505726D01*
X55888096Y23005412D01*
X56540982Y22734310D01*
X57247916Y22733693D01*
X57901274Y23003655D01*
X58401588Y23503096D01*
X58672690Y24155982D01*
X58673307Y24862916D01*
X58403345Y25516274D01*
X57903904Y26016588D01*
X57251018Y26287690D01*
X57066521Y26287851D01*
X55456686Y27897686D01*
X55009955Y28196182D01*
X54483000Y28301000D01*
X47244000Y28301000D01*
X46717045Y28196182D01*
X46270314Y27897686D01*
X45254314Y26881686D01*
X44955818Y26434955D01*
X44851000Y25908000D01*
X44851000Y21906372D01*
X43625628Y20681000D01*
X40194372Y20681000D01*
X38969000Y21906372D01*
X38969000Y23384277D01*
X39082417Y23109786D01*
X39680140Y22511020D01*
X40461501Y22186570D01*
X41307547Y22185832D01*
X42089474Y22508917D01*
X42688240Y23106640D01*
X43012690Y23888001D01*
X43013428Y24734047D01*
X42690343Y25515974D01*
X42092620Y26114740D01*
X41311259Y26439190D01*
X41274704Y26439222D01*
X41608005Y27241898D01*
X41608874Y28237494D01*
X41228678Y29157637D01*
X40902884Y29484000D01*
X56325628Y29484000D01*
X59329000Y26480628D01*
G36*
X41920726Y15858345D02*
X41790153Y15728000D01*
X40321372Y15728000D01*
X40154372Y15895000D01*
X42009438Y15895000D01*
X41920726Y15858345D01*
X41920726Y15858345D01*
G37*
X41920726Y15858345D02*
X41790153Y15728000D01*
X40321372Y15728000D01*
X40154372Y15895000D01*
X42009438Y15895000D01*
X41920726Y15858345D01*
G36*
X47768655Y23505726D02*
X47899000Y23375153D01*
X47899000Y19431000D01*
X48003818Y18904045D01*
X48174234Y18649000D01*
X45488372Y18649000D01*
X47201686Y20362314D01*
X47500182Y20809045D01*
X47605000Y21336000D01*
X47605000Y23901801D01*
X47768655Y23505726D01*
X47768655Y23505726D01*
G37*
X47768655Y23505726D02*
X47899000Y23375153D01*
X47899000Y19431000D01*
X48003818Y18904045D01*
X48174234Y18649000D01*
X45488372Y18649000D01*
X47201686Y20362314D01*
X47500182Y20809045D01*
X47605000Y21336000D01*
X47605000Y23901801D01*
X47768655Y23505726D01*
G36*
X23923126Y27246266D02*
X24256310Y26439900D01*
X24224453Y26439928D01*
X23442526Y26116843D01*
X22843760Y25519120D01*
X22519310Y24737759D01*
X22518572Y23891713D01*
X22841657Y23109786D01*
X23439380Y22511020D01*
X24220741Y22186570D01*
X25066787Y22185832D01*
X25848714Y22508917D01*
X26447480Y23106640D01*
X26771930Y23888001D01*
X26772668Y24734047D01*
X26563961Y25239158D01*
X26921774Y25238846D01*
X27841917Y25619042D01*
X28546524Y26322420D01*
X28851540Y27056979D01*
X28851540Y26338148D01*
X28722952Y26209784D01*
X28451850Y25556898D01*
X28451389Y25028505D01*
X28209806Y24928685D01*
X27709492Y24429244D01*
X27438390Y23776358D01*
X27437773Y23069424D01*
X27633458Y22595830D01*
X25210628Y20173000D01*
X16891000Y20173000D01*
X16364045Y20068182D01*
X16172704Y19940332D01*
X23923514Y27691142D01*
X23923126Y27246266D01*
X23923126Y27246266D01*
G37*
X23923126Y27246266D02*
X24256310Y26439900D01*
X24224453Y26439928D01*
X23442526Y26116843D01*
X22843760Y25519120D01*
X22519310Y24737759D01*
X22518572Y23891713D01*
X22841657Y23109786D01*
X23439380Y22511020D01*
X24220741Y22186570D01*
X25066787Y22185832D01*
X25848714Y22508917D01*
X26447480Y23106640D01*
X26771930Y23888001D01*
X26772668Y24734047D01*
X26563961Y25239158D01*
X26921774Y25238846D01*
X27841917Y25619042D01*
X28546524Y26322420D01*
X28851540Y27056979D01*
X28851540Y26338148D01*
X28722952Y26209784D01*
X28451850Y25556898D01*
X28451389Y25028505D01*
X28209806Y24928685D01*
X27709492Y24429244D01*
X27438390Y23776358D01*
X27437773Y23069424D01*
X27633458Y22595830D01*
X25210628Y20173000D01*
X16891000Y20173000D01*
X16364045Y20068182D01*
X16172704Y19940332D01*
X23923514Y27691142D01*
X23923126Y27246266D01*
G36*
X38968369Y25239399D02*
X38844327Y24940671D01*
X38644534Y25239681D01*
X38968369Y25239399D01*
X38968369Y25239399D01*
G37*
X38968369Y25239399D02*
X38844327Y24940671D01*
X38644534Y25239681D01*
X38968369Y25239399D01*
G36*
X47605000Y25120548D02*
X47605000Y25337628D01*
X47759147Y25491775D01*
X47605000Y25120548D01*
X47605000Y25120548D01*
G37*
X47605000Y25120548D02*
X47605000Y25337628D01*
X47759147Y25491775D01*
X47605000Y25120548D01*
G36*
X36603675Y28241862D02*
X36602806Y27246266D01*
X36722006Y26957780D01*
X36671938Y26978570D01*
X35965004Y26979187D01*
X35664460Y26855005D01*
X35664460Y27367088D01*
X36649434Y28352062D01*
X36603675Y28241862D01*
X36603675Y28241862D01*
G37*
X36603675Y28241862D02*
X36602806Y27246266D01*
X36722006Y26957780D01*
X36671938Y26978570D01*
X35965004Y26979187D01*
X35664460Y26855005D01*
X35664460Y27367088D01*
X36649434Y28352062D01*
X36603675Y28241862D01*
M02*
