M48
;DRILL file {KiCad 4.0.6+dfsg1-1} date Sun Nov 19 12:37:53 2017
;FORMAT={-:-/ absolute / metric / decimal}
FMAT,2
METRIC,TZ
T1C0.800
T2C0.800
T3C1.501
T4C3.251
%
G90
G05
M71
T1
X2.286Y14.351
X3.556Y10.541
X3.556Y8.001
X9.906Y4.191
X11.176Y10.541
X11.176Y8.001
X12.446Y14.351
X17.526Y14.351
X18.796Y10.541
X18.796Y8.001
X20.066Y4.191
X25.146Y4.191
X26.416Y10.541
X26.416Y8.001
X27.686Y14.351
X29.215Y23.421
X32.766Y14.351
X34.036Y10.541
X34.036Y8.001
X35.306Y4.191
X40.386Y4.191
X41.656Y10.541
X41.656Y8.001
X42.926Y14.351
X49.276Y24.511
X49.276Y14.351
X49.276Y10.541
X49.276Y8.001
X50.546Y4.191
X56.896Y24.511
X56.896Y14.351
X56.896Y10.541
X56.896Y8.001
T2
X30.229Y25.202
X31.245Y23.421
X32.258Y25.202
X33.274Y23.421
X34.287Y25.202
X35.303Y23.421
X36.317Y25.202
T3
X24.646Y24.313
X40.886Y24.313
T4
X26.426Y27.742
X39.106Y27.742
T0
M30
